<svg xmlns="http://www.w3.org/2000/svg" id="Capa_2" viewBox="0 0 283 82.49"><defs><style>.cls-1{fill:#fff;}.cls-2{fill:#1d1d1b;}</style></defs><g id="Capa_1-2"><g><circle class="cls-1" cx="41.24" cy="41.24" r="41.24"></circle><g><g><path class="cls-2" d="M26.85,9.04c.39-.17,.65-.34,.77-.5,.1-.14,.11-.31,.03-.51-.08-.19-.2-.29-.38-.31h-.08c-.19,0-.43,.06-.73,.19-.08,.03-.14,.07-.2,.1l-.06,.03,.47,1.08,.18-.08h0Z"></path><path class="cls-2" d="M7.34,50.85c.07,.07,.16,.11,.27,.11,.05,0,.11-.01,.17-.03,.18-.05,.28-.14,.32-.29,.05-.17,.03-.42-.06-.74-.02-.07-.04-.14-.06-.19l-.02-.05-1.01,.27,.04,.16c.1,.37,.21,.62,.34,.75h0Z"></path><path class="cls-2" d="M39.57,75.87c-.09-.13-.2-.23-.33-.3-.14-.08-.3-.12-.48-.13h-.1c-.14,0-.27,.03-.39,.07-.14,.06-.27,.14-.37,.26-.11,.12-.19,.26-.26,.43-.07,.17-.11,.37-.12,.59-.02,.23,0,.43,.04,.61,.04,.18,.11,.33,.19,.47,.09,.13,.2,.23,.33,.3,.13,.08,.3,.12,.48,.13h.1c.14,0,.27-.02,.39-.07,.15-.06,.27-.14,.37-.25,.11-.12,.19-.26,.26-.43,.07-.17,.11-.37,.12-.6s0-.43-.04-.61c-.04-.18-.11-.34-.19-.47h0Z"></path><path class="cls-2" d="M27.44,74.17c-.1,.1-.19,.21-.3,.32l.91,.37c0-.15,.01-.3,.02-.44,0-.2,.01-.39,.02-.56v-.39c-.08,.08-.16,.18-.26,.29-.12,.13-.25,.27-.38,.41h0Z"></path><path class="cls-2" d="M11.65,59.62l.02-.03c-.11,.02-.24,.05-.38,.07-.17,.03-.35,.07-.55,.11-.14,.03-.28,.06-.43,.08l.52,.83c.09-.12,.18-.23,.27-.34,.13-.16,.24-.31,.34-.45l.21-.29h0Z"></path><path class="cls-2" d="M74.87,50.98c-.14,.02-.27,.03-.39,.04,.09,.07,.19,.15,.31,.24,.14,.1,.29,.21,.45,.34,.11,.09,.23,.17,.35,.26l.27-.95c-.15,.01-.3,.02-.44,.03-.2,.02-.39,.03-.56,.05h0Z"></path><path class="cls-2" d="M53.05,9.98c.12,.12,.27,.23,.47,.3,.16,.07,.33,.1,.48,.1h.06c.17-.01,.34-.06,.49-.14,.15-.09,.29-.21,.42-.37,.13-.16,.24-.36,.33-.59,.09-.23,.15-.45,.16-.66,.02-.2,0-.39-.05-.56s-.13-.31-.26-.43c-.12-.13-.28-.23-.46-.3-.16-.07-.32-.1-.47-.1h-.08c-.17,.02-.33,.06-.49,.15-.15,.09-.29,.21-.42,.37-.13,.16-.24,.36-.33,.59-.09,.23-.15,.45-.16,.65-.02,.2,0,.39,.05,.56,.05,.16,.13,.31,.25,.43h0Z"></path><path class="cls-2" d="M64.15,14.87c.08-.21,.15-.4,.21-.58l.15-.44c-.12,.07-.26,.14-.41,.23-.16,.09-.35,.19-.55,.3-.14,.08-.29,.16-.44,.24l.86,.73c.06-.16,.12-.32,.18-.47h0Z"></path><path class="cls-2" d="M19.37,67.67c-.14-.12-.29-.19-.44-.23-.08-.02-.16-.03-.25-.03-.07,0-.14,0-.21,.02-.15,.03-.31,.1-.47,.2s-.31,.24-.45,.41c-.14,.17-.25,.35-.32,.52s-.11,.33-.11,.49c0,.15,.03,.3,.09,.44s.17,.27,.31,.39c.14,.11,.29,.19,.43,.24,.08,.02,.17,.03,.25,.03,.07,0,.13,0,.2-.02,.15-.03,.31-.1,.46-.2,.15-.1,.31-.24,.45-.41,.14-.17,.25-.35,.33-.52,.07-.17,.11-.33,.11-.49,0-.15-.03-.3-.1-.44-.07-.14-.17-.27-.31-.38h0Z"></path><path class="cls-2" d="M77.78,38.96c-.13-.09-.28-.16-.46-.21-.15-.04-.32-.06-.5-.06h-.11c-.23,.01-.42,.05-.6,.11-.17,.06-.32,.14-.44,.25-.12,.1-.2,.22-.27,.37-.06,.14-.09,.31-.08,.49,0,.18,.05,.34,.12,.48,.07,.14,.17,.25,.3,.34,.13,.09,.28,.16,.46,.21,.15,.04,.32,.06,.5,.06h.11c.23-.01,.42-.05,.6-.11s.32-.14,.44-.25c.12-.1,.2-.23,.27-.36,.06-.14,.09-.31,.08-.49,0-.18-.05-.34-.12-.48-.07-.14-.17-.25-.29-.34h-.01Z"></path><path class="cls-2" d="M70.4,12.08C62.61,4.29,52.26,0,41.24,0S19.87,4.29,12.08,12.08C4.29,19.87,0,30.23,0,41.24s4.29,21.37,12.08,29.16c7.79,7.79,18.15,12.08,29.16,12.08s21.37-4.29,29.16-12.08c7.79-7.79,12.08-18.15,12.08-29.16s-4.29-21.37-12.08-29.16Zm9.03,27.65c.02,.35-.03,.68-.13,1-.1,.32-.26,.6-.48,.84-.21,.24-.49,.44-.82,.59s-.71,.23-1.14,.25h-.16c-.37,0-.71-.06-1-.16-.34-.12-.63-.3-.87-.53s-.42-.5-.55-.8c-.13-.3-.19-.63-.21-.97-.02-.35,.03-.68,.13-1,.1-.32,.27-.6,.48-.84,.22-.24,.5-.44,.82-.59s.71-.23,1.14-.25h.17c.36,0,.7,.05,.99,.15,.34,.12,.63,.29,.86,.51s.42,.49,.55,.8,.19,.64,.21,1h0Zm-6.16-7.12l4.77-.96,.14-.03,.03,.14,.18,.9,.02,.08-.06,.06c-.48,.41-.95,.85-1.41,1.31-.36,.36-.7,.74-1.02,1.13l2.74-.55,.14-.03,.03,.14,.21,1.06,.03,.14-.14,.03-4.77,.96-.14,.03-.03-.14-.17-.87v-.06l.02-.05c.12-.18,.28-.4,.47-.62,.18-.23,.38-.47,.6-.71,.21-.24,.43-.49,.67-.73,.12-.12,.23-.24,.34-.35l-2.36,.48-.14,.03-.03-.14-.21-1.07-.03-.14,.14-.03h-.01Zm-2.86,8.16h-28.7V12.07c15.74,.25,28.45,12.96,28.7,28.7Zm-5.33-28.64l.08-.04,.07,.06,.87,.74,.07,.06-.03,.09c-.11,.4-.23,.81-.34,1.21-.12,.4-.26,.83-.41,1.28-.15,.45-.32,.92-.5,1.4-.18,.5-.38,1.03-.6,1.6l-.07,.19-.15-.13-.98-.84-.08-.07,.04-.1c.08-.18,.15-.36,.23-.56l.14-.35,.05-.13-1.44-1.23-.12,.07-.33,.19c-.18,.1-.35,.21-.51,.31l-.09,.06-.08-.07-.96-.81-.15-.13,.17-.1c.53-.31,1.03-.59,1.48-.85,.45-.25,.88-.49,1.3-.71,.41-.22,.82-.42,1.19-.61,.38-.19,.77-.37,1.15-.53h0Zm-7.65,1.35c.05-.49,.12-1.01,.19-1.53,.08-.51,.16-1.03,.25-1.54,.09-.5,.18-.98,.28-1.43,.09-.46,.18-.86,.26-1.21l.05-.19,.17,.1,1.14,.7,.09,.06-.03,.1c-.08,.32-.16,.66-.24,1.03s-.16,.74-.24,1.1l-.23,1.06c-.04,.19-.08,.38-.1,.55,.14-.1,.29-.21,.44-.34,.27-.21,.56-.44,.85-.68,.3-.24,.59-.48,.88-.72s.56-.47,.81-.68l.08-.07,.09,.06,1.09,.67,.17,.11-.16,.13c-.28,.23-.6,.49-.96,.77-.35,.28-.74,.58-1.15,.9-.41,.31-.83,.62-1.26,.92-.43,.31-.85,.6-1.27,.87l-.08,.05-.08-.05-.98-.6-.08-.05v-.09h.02Zm-5.95-5.7c.17-.45,.4-.81,.68-1.09,.28-.29,.58-.5,.92-.63,.31-.13,.64-.19,.98-.19h.06c.36,.01,.72,.08,1.06,.22,.35,.14,.67,.33,.94,.57s.49,.53,.63,.86c.14,.33,.22,.69,.22,1.08s-.09,.81-.26,1.26c-.17,.44-.4,.81-.66,1.09-.27,.29-.57,.5-.89,.64-.3,.13-.62,.19-.97,.19h-.08c-.36-.01-.73-.09-1.09-.24-.35-.14-.67-.33-.94-.57-.27-.24-.49-.53-.63-.85-.15-.33-.22-.69-.23-1.08,0-.39,.09-.81,.26-1.26h0Zm-6.39,1.42l1.04-5.26,.03-.14,.14,.03,.97,.19h.06l.03,.06c.13,.2,.28,.45,.44,.74,.15,.29,.31,.59,.47,.91,.15,.32,.31,.65,.46,.99,.08,.18,.16,.36,.24,.54l.52-2.64,.03-.14,.14,.03,1.18,.23,.14,.03-.03,.14-1.04,5.26-.03,.14-.14-.03-.99-.19-.08-.02-.03-.08c-.22-.66-.47-1.34-.75-1.99-.23-.53-.47-1.05-.74-1.55l-.6,3.06-.03,.14-.14-.03-1.17-.23-.14-.03,.03-.14h0Zm-8.58-5.36l1.2-.13,.14-.02,.02,.14,.58,5.33,.02,.14-.14,.02-1.2,.13-.14,.02-.02-.14-.58-5.33-.02-.14,.14-.02Zm-6.41,2.92c.06-.39,.19-.74,.38-1.05,.19-.31,.44-.56,.74-.76,.3-.2,.63-.35,.99-.43,.26-.06,.52-.1,.77-.1,.11,0,.22,0,.33,.02,.36,.04,.7,.15,1.01,.34,.31,.18,.58,.44,.81,.76,.23,.32,.4,.72,.51,1.18,.11,.46,.14,.89,.09,1.28-.05,.39-.17,.74-.36,1.04s-.43,.56-.74,.76c-.3,.2-.65,.35-1.03,.45-.26,.06-.52,.1-.77,.1-.11,0-.22,0-.33-.02-.36-.04-.7-.15-1.01-.33-.31-.18-.58-.43-.81-.75-.23-.32-.4-.72-.51-1.18-.11-.46-.14-.9-.08-1.28h0Zm-5.63,.74c.23-.15,.47-.3,.72-.43s.49-.25,.69-.33c.59-.26,1.12-.38,1.57-.38,.13,0,.27,.01,.38,.04,.55,.1,.97,.46,1.23,1.05,.16,.37,.2,.72,.13,1.03-.06,.26-.18,.5-.38,.73,.11,.06,.23,.13,.34,.2,.18,.11,.36,.23,.54,.36,.18,.13,.37,.27,.55,.41,.18,.15,.36,.3,.52,.43l.17,.15-.21,.09-1.24,.54-.08,.04-.07-.05c-.16-.12-.32-.25-.49-.37-.16-.12-.33-.24-.49-.36-.16-.11-.32-.22-.48-.32-.13-.08-.26-.16-.38-.22l-.35,.15,.72,1.67,.06,.13-.13,.06-1.11,.48-.13,.06-.06-.13-2.1-4.85-.05-.11,.1-.07Zm-5.45,3.2l1.02-.65,.12-.08,.08,.12,1.75,2.72c.11,.17,.22,.3,.33,.39,.11,.09,.21,.15,.32,.17,.05,.02,.1,.02,.16,.02,.05,0,.09,0,.14-.02,.11-.03,.22-.08,.33-.14,.21-.14,.34-.31,.39-.53,.05-.21-.04-.49-.25-.81l-1.75-2.72-.08-.12,.12-.08,1.02-.65,.12-.08,.08,.12,1.81,2.81c.18,.28,.31,.56,.38,.84,.07,.29,.08,.57,.03,.85-.06,.28-.18,.55-.37,.8-.19,.25-.45,.49-.79,.7-.33,.21-.65,.35-.96,.41-.15,.03-.3,.05-.43,.05-.15,0-.3-.02-.43-.05-.27-.07-.52-.19-.75-.38-.23-.18-.42-.41-.6-.69l-1.81-2.81-.08-.12,.12-.08h-.03Zm-4.1,3.49l2.71-2.4,.11-.1,.1,.11,.68,.76,.1,.11-.11,.1-1.7,1.51,.51,.57,1.49-1.33,.11-.1,.1,.11,.66,.74,.1,.11-.11,.1-1.49,1.33,.67,.75,1.83-1.63,.11-.1,.1,.11,.68,.76,.1,.11-.11,.1-2.84,2.53-.11,.1-.1-.11-3.57-4.01-.1-.11,.11-.1h-.01Zm25.84-2.12v28.7H12.07c.25-15.74,12.96-28.45,28.7-28.7h-.01Zm0,29.64v28.7c-15.74-.25-28.45-12.96-28.7-28.7h28.7ZM3.91,32.91l.26-1.06,.04-.14,.14,.04,4.73,1.14,.14,.04-.04,.14-.26,1.06-.04,.14-.14-.04-4.73-1.14-.14-.04,.04-.14Zm-.89,5.6l.12-.91v-.08l.09-.03c.58-.24,1.18-.5,1.76-.79,.46-.23,.9-.48,1.33-.74l-2.77-.36-.14-.02,.02-.14,.14-1.07,.02-.14,.14,.02,4.83,.63,.14,.02-.02,.14-.11,.88v.06l-.06,.04c-.17,.13-.39,.29-.64,.44s-.51,.32-.79,.48c-.28,.16-.57,.32-.86,.48-.15,.08-.29,.15-.43,.23l2.38,.31,.14,.02-.02,.14-.14,1.08-.02,.14-.14-.02-4.82-.63-.14-.02,.02-.14h-.02Zm-.05,3.74v-1.24h.13l3.79-.03v-1.47h1.21v.13l.04,4.03v.14h-1.22v-1.46l-3.8,.03h-.14v-.14h0Zm.59,6.17l-.02-.14-.46-3.42-.02-.14,.14-.02,4.82-.64,.14-.02,.02,.14,.43,3.26,.02,.14-.14,.02-.91,.12-.14,.02-.02-.14-.27-2.03-.66,.09,.24,1.79,.02,.14-.14,.02-.89,.12-.14,.02-.02-.14-.24-1.79-.88,.12,.29,2.19,.02,.14-.14,.02-.91,.12-.14,.02h0Zm1.32,5.15l-.06-.22-.32-1.18-.02-.08,.06-.06,.02-.02c.12-.12,.25-.25,.38-.37,.13-.13,.27-.26,.38-.39,.12-.13,.24-.26,.35-.38,.09-.1,.17-.2,.24-.31l-.09-.32-1.58,.42-.14,.04-.04-.14-.29-1.06-.04-.14,.14-.04,4.63-1.24,.11-.03,.05,.11c.11,.23,.21,.46,.29,.71,.09,.25,.15,.47,.21,.66,.19,.73,.21,1.34,.06,1.81-.16,.49-.54,.81-1.12,.97-.17,.05-.33,.07-.48,.07-.17,0-.33-.03-.47-.09-.22-.09-.42-.23-.6-.43-.07,.09-.14,.17-.22,.27-.12,.15-.26,.3-.4,.44-.14,.15-.29,.3-.45,.44-.15,.14-.31,.28-.46,.41l-.17,.15h0Zm2.06,4.89l-.06-.13-.36-.84-.03-.08,.05-.07c.38-.5,.76-1.03,1.1-1.58,.28-.43,.53-.87,.77-1.31l-2.56,1.1-.13,.06-.06-.13-.43-.99-.06-.13,.13-.06,4.47-1.92,.13-.06,.06,.13,.35,.82,.03,.06-.02,.06c-.08,.21-.19,.45-.33,.71-.13,.27-.28,.54-.44,.81-.16,.29-.33,.57-.5,.85-.09,.14-.17,.28-.26,.42l2.21-.95,.13-.06,.06,.13,.43,1,.06,.13-.13,.06-4.47,1.92-.13,.06h0Zm3.16,5.27l-.11-.17-.62-1-.06-.09,.07-.08c.11-.13,.23-.28,.35-.42l.09-.11,.2-.26-.9-1.44-.32,.07-.13,.03c-.18,.04-.36,.08-.53,.13l-.1,.03-.06-.09-.6-.97-.11-.17,.2-.05c.55-.12,1.05-.23,1.51-.32,.48-.1,.92-.18,1.32-.25,.41-.07,.81-.14,1.2-.19,.38-.06,.77-.1,1.14-.14h.09l.05,.07,.55,.88,.05,.08-.05,.08c-.2,.32-.42,.64-.63,.95-.22,.32-.46,.65-.71,.99-.26,.35-.53,.71-.82,1.07-.3,.38-.62,.79-.96,1.21l-.13,.16h.01Zm1.74,1.88l-.11,.09-.09-.11-.68-.86-.09-.11,.11-.09,2.96-2.36-.82-1.04-.09-.11,.11-.09,.73-.58,.11-.09,.09,.11,2.51,3.15,.09,.11-.11,.09-.73,.58-.11,.09-.09-.11-.82-1.04-2.96,2.36h-.01Zm2.31,2.76l-.1-.1-.76-.79-.1-.1,.1-.1,3.5-3.38,.1-.1,.1,.1,.76,.79,.1,.1-.1,.1-3.5,3.38-.1,.1h0Zm4.43,3.13c-.07,0-.13,.01-.19,.01-.26,0-.52-.05-.77-.14-.31-.11-.61-.29-.88-.51-.27-.22-.49-.48-.65-.76-.17-.29-.27-.6-.31-.92s0-.66,.11-1c.11-.34,.31-.68,.58-1.01s.58-.59,.9-.76,.64-.27,.97-.29c.06,0,.12,0,.18,0,.27,0,.53,.05,.78,.13,.31,.11,.6,.28,.86,.49,.27,.22,.49,.48,.65,.76,.17,.29,.27,.6,.3,.93,.04,.32,0,.66-.11,1-.11,.34-.31,.68-.58,1.01s-.57,.59-.88,.76c-.31,.17-.63,.28-.96,.3Zm5.01,3.86l-.12-.07-.79-.47-.07-.04v-.08c.02-.63,0-1.28-.03-1.93-.03-.51-.08-1.02-.15-1.51l-1.43,2.4-.07,.12-.12-.07-.93-.55-.12-.07,.07-.12,2.49-4.18,.07-.12,.12,.07,.77,.46,.05,.03,.02,.06c.06,.21,.11,.47,.15,.76,.05,.29,.09,.59,.13,.92,.04,.32,.07,.65,.09,.98,.01,.16,.03,.33,.04,.49l1.23-2.07,.07-.12,.12,.07,.94,.56,.12,.07-.07,.12-2.49,4.18-.07,.12h0Zm5.73,.65c-.02,.47-.04,.99-.06,1.54v.2l-.2-.08-1.09-.44-.1-.04v-.1c.03-.17,.04-.36,.05-.55v-.2l.02-.26-1.57-.64-.1,.12-.2,.23c-.12,.14-.24,.28-.35,.41l-.07,.08-.1-.04-1.05-.43-.19-.08,.13-.15c.36-.41,.71-.8,1.03-1.16,.32-.35,.63-.68,.92-.99,.29-.3,.58-.59,.85-.86,.28-.27,.56-.54,.83-.79l.07-.06,.08,.04,.96,.39,.08,.04v.09c.03,.37,.04,.76,.06,1.14,.01,.38,.02,.79,.02,1.22s-.01,.87-.03,1.35v.02Zm4.34,1.75l-.24,.91-.04,.14-.14-.04-3.15-.82-.14-.04,.04-.14,1.23-4.71,.04-.14,.14,.04,1.06,.28,.14,.04-.04,.14-.96,3.66,1.95,.51,.14,.04-.04,.14Zm7.54-.69c-.03,.43-.12,.81-.28,1.14s-.36,.59-.6,.8c-.25,.21-.53,.36-.85,.46-.25,.07-.51,.11-.78,.11-.08,0-.15,0-.24-.01-.35-.03-.68-.11-.98-.24-.3-.14-.57-.33-.78-.57-.21-.24-.38-.54-.49-.88-.11-.34-.15-.73-.12-1.16,.03-.43,.13-.81,.29-1.14s.37-.59,.62-.8c.25-.21,.54-.36,.86-.46,.25-.07,.51-.11,.77-.11,.07,0,.14,0,.21,.01,.35,.03,.68,.11,.98,.24,.3,.14,.57,.33,.78,.57s.38,.54,.49,.88,.15,.73,.12,1.17h-.01Zm-.32-71.15l-.06,3.12v.14h-.14l-1.19-.03h-.14v-.15l.1-5.36v-.14h.14l.98,.02h.06l.04,.05c.17,.17,.36,.39,.56,.64,.2,.26,.41,.53,.62,.81,.21,.29,.42,.59,.62,.89,.11,.16,.22,.33,.33,.49l.05-2.7v-.14h.15l1.2,.03h.14v.15l-.1,5.36v.14h-.14l-1.01-.02h-.08l-.04-.08c-.33-.61-.7-1.23-1.08-1.83-.31-.49-.65-.95-1-1.4h0Zm.82,35.79h28.7c-.25,15.74-12.96,28.45-28.7,28.7v-28.7Zm4.8,37.51l-.92,.08h-.08l-.05-.06c-.36-.52-.74-1.04-1.15-1.55-.32-.4-.65-.78-1-1.14l.24,2.78v.14h-.13l-1.08,.1h-.14v-.13l-.42-4.85v-.14h.13l.89-.09h.06l.05,.04c.17,.14,.36,.32,.57,.53,.21,.21,.42,.43,.63,.68,.21,.24,.43,.49,.65,.75,.11,.13,.21,.26,.31,.38l-.2-2.39v-.14h.13l1.08-.1h.14v.13l.42,4.85v.14h-.14Zm4.74-.99l-3.17,.71-.14,.03-.03-.14-1.06-4.75-.03-.14,.14-.03,1.07-.24,.14-.03,.03,.14,.82,3.69,1.96-.44,.14-.03,.03,.14,.2,.92,.03,.14-.14,.03h0Zm2.02-.65l-1.04,.33-.14,.05-.05-.14-1.48-4.63-.05-.14,.14-.05,1.04-.33,.14-.05,.05,.14,1.48,4.63,.05,.14-.14,.05Zm5.27-2.16l-.84,.37-.08,.04-.07-.05c-.51-.38-1.04-.74-1.59-1.09-.43-.27-.88-.52-1.32-.75l1.13,2.55,.06,.13-.13,.06-.99,.44-.13,.06-.06-.13-1.97-4.45-.06-.13,.13-.06,.81-.36,.06-.03,.06,.02c.21,.08,.45,.19,.71,.32s.54,.27,.82,.43c.28,.15,.57,.32,.85,.49,.14,.09,.28,.17,.42,.26l-.98-2.2-.06-.13,.13-.06,1-.44,.13-.06,.06,.13,1.97,4.45,.06,.13-.13,.06h0Zm4.33-2.59l-2.93,1.82-.12,.08-.08-.12-2.56-4.14-.08-.12,.12-.08,2.79-1.73,.12-.08,.08,.12,.49,.78,.08,.12-.12,.08-1.74,1.08,.35,.57,1.53-.95,.12-.08,.08,.12,.48,.76,.08,.12-.12,.08-1.53,.95,.47,.75,1.88-1.16,.12-.08,.08,.12,.49,.78,.08,.12-.12,.08h-.01Zm5.06-4.17l-2.58,2.29-.11,.1-.1-.11-3.23-3.64-.1-.11,.11-.1,2.46-2.18,.11-.1,.1,.11,.61,.69,.1,.11-.11,.1-1.53,1.36,.45,.5,1.35-1.2,.11-.1,.1,.11,.6,.67,.1,.11-.11,.1-1.35,1.2,.59,.66,1.65-1.47,.11-.1,.1,.11,.61,.69,.1,.11-.11,.1h-.01Zm2.57-3c-.15,.34-.38,.69-.66,1.02-.13,.15-.29,.33-.48,.51-.19,.19-.39,.37-.59,.53l-.09,.07-.09-.08-3.6-3.09-.09-.08,.06-.1c.13-.23,.29-.46,.46-.68,.17-.23,.32-.41,.45-.56,.28-.32,.57-.59,.87-.79,.31-.2,.63-.34,.96-.4,.11-.02,.23-.03,.34-.03,.23,0,.45,.04,.68,.11,.34,.11,.69,.32,1.03,.61,.33,.29,.58,.59,.74,.91,.16,.32,.25,.66,.24,1,0,.34-.08,.68-.24,1.03h0Zm3.42-4.74c-.06,.28-.19,.58-.38,.88-.19,.3-.4,.54-.63,.71-.23,.17-.48,.28-.73,.33-.11,.02-.21,.03-.33,.03-.15,0-.3-.02-.45-.06-.26-.07-.51-.18-.77-.34l-2.56-1.62-.12-.08,.08-.12,.58-.93,.08-.12,.12,.08,2.48,1.57c.15,.1,.3,.16,.42,.19,.08,.02,.16,.03,.23,.03,.04,0,.07,0,.1,0,.09-.02,.17-.05,.24-.11,.08-.06,.15-.14,.21-.24,.12-.19,.16-.38,.12-.57s-.21-.38-.51-.57l-2.48-1.57-.12-.08,.08-.12,.58-.93,.08-.12,.12,.08,2.56,1.62c.25,.16,.47,.35,.63,.55,.17,.21,.29,.45,.35,.7s.06,.52,0,.8h.01Zm2.64-5.18c-.05,.3-.15,.62-.31,.97-.34,.76-.82,1.24-1.43,1.45-.23,.08-.47,.12-.71,.12-.42,0-.87-.11-1.36-.33-.38-.17-.7-.39-.95-.65-.25-.26-.43-.55-.55-.85-.11-.31-.16-.64-.13-.98,.03-.34,.11-.68,.27-1.02,.09-.19,.18-.37,.29-.52,.1-.14,.2-.27,.29-.37,.1-.11,.18-.19,.26-.25,.08-.06,.13-.11,.17-.13l.1-.06,.08,.08,.68,.65,.12,.12-.13,.1c-.13,.1-.26,.22-.38,.37-.12,.15-.24,.33-.34,.55-.06,.14-.1,.29-.12,.44-.02,.15,0,.3,.06,.44s.15,.29,.28,.42c.13,.14,.32,.26,.56,.37,.19,.09,.38,.15,.57,.18,.08,.02,.16,.02,.24,.02,.09,0,.17-.01,.26-.03,.15-.04,.29-.11,.42-.23,.13-.11,.25-.28,.34-.49,.06-.14,.11-.27,.14-.38,.04-.12,.06-.23,.08-.32,.02-.09,.03-.18,.03-.25v-.38l.16,.02,.93,.09h.11l.02,.12c.03,.19,.01,.43-.04,.74v-.02Zm1.98-6.14l-.33,1.13-.03,.1h-.1c-.17,.01-.36,.02-.55,.03l-.46,.03-.47,1.63,.24,.17,.14,.1c.15,.11,.3,.21,.45,.31l.09,.06-.03,.1-.32,1.09-.06,.19-.16-.12c-.46-.32-.87-.62-1.25-.91-.39-.29-.75-.56-1.08-.81-.34-.27-.66-.52-.95-.76-.3-.25-.59-.5-.87-.75l-.07-.06,.03-.09,.29-1,.03-.09,.09-.02c.37-.06,.75-.12,1.13-.17,.39-.05,.8-.1,1.21-.14,.42-.04,.87-.08,1.35-.12,.48-.04,1-.07,1.54-.1h.2l-.06,.18h.01Zm.4-2.54l-.19,1.08-.03,.14-.14-.03-3.73-.64-.23,1.3-.03,.14-.14-.03-.92-.16-.14-.03,.03-.14,.69-3.97,.03-.14,.14,.03,.92,.16,.14,.03-.03,.14-.23,1.3,3.73,.64,.14,.03-.03,.14h0Zm.37-3.6l-.08,1.09v.14h-.15l-4.85-.36h-.14v-.15l.09-1.09v-.14h.15l4.85,.36h.14v.15Z"></path><path class="cls-2" d="M68.83,63.81c-.34-.29-.66-.43-.97-.43h-.06c-.32,.02-.65,.22-.98,.6-.05,.06-.1,.11-.15,.17-.02,.02-.04,.05-.05,.07l2.13,1.83,.03-.03c.05-.05,.1-.11,.16-.18,.33-.38,.48-.75,.45-1.08-.03-.34-.22-.66-.56-.95h0Z"></path><path class="cls-2" d="M31.92,8.3c.1,.17,.23,.32,.36,.42s.29,.17,.46,.21c.07,.02,.14,.02,.21,.02,.11,0,.22-.02,.34-.04,.19-.05,.36-.13,.5-.24s.24-.24,.31-.4c.07-.16,.12-.34,.13-.54,.01-.2-.01-.43-.07-.67-.06-.24-.14-.46-.25-.63-.1-.17-.23-.32-.36-.42-.14-.1-.29-.17-.46-.21-.07-.02-.14-.02-.22-.02-.11,0-.21,.02-.33,.04-.2,.05-.37,.13-.5,.24-.13,.11-.24,.25-.31,.4-.07,.16-.12,.34-.13,.55-.01,.21,.02,.43,.07,.67,.06,.24,.14,.46,.25,.63h0Z"></path></g><path class="cls-2" d="M29.07,44.64c1.9-.16,3.86,.39,5.42,1.54,1.33,.96,2.37,2.33,2.98,3.9,.62,1.61,.77,3.41,.42,5.1-.29,1.39-.9,2.7-1.78,3.79-.88,1.09-2.02,1.96-3.29,2.49-1.43,.6-3.01,.77-4.53,.5-1.62-.29-3.14-1.09-4.33-2.27-1.58-1.54-2.53-3.75-2.6-6.01-.08-2.03,.55-4.07,1.74-5.67,.9-1.22,2.12-2.18,3.49-2.76,.79-.33,1.63-.54,2.48-.61h0Zm.08,2.23c-.4,.58-.67,1.25-.88,1.93-.33,1.1-.5,2.25-.57,3.39h4.02c-.08-1.42-.32-2.85-.84-4.17-.21-.53-.48-1.05-.86-1.46-.1-.09-.2-.2-.34-.19-.23,.09-.38,.31-.53,.51h0Zm-4.48,2.16c-.72,.9-1.19,2-1.36,3.16h2.53c.03-.45,.08-.9,.14-1.35,.18-1.24,.46-2.47,.95-3.61-.86,.43-1.64,1.03-2.25,1.81h0Zm7.83-1.8c.12,.29,.23,.57,.33,.87,.42,1.32,.65,2.7,.76,4.08h2.53c-.16-1.05-.56-2.07-1.18-2.92-.63-.87-1.48-1.58-2.43-2.04Zm-9.2,7.27c.18,1.35,.78,2.62,1.68,3.6,.55,.6,1.22,1.09,1.94,1.46-.16-.4-.31-.8-.43-1.22-.36-1.24-.57-2.53-.65-3.83-.84,0-1.69,0-2.54,0h0Zm4.39,0c.06,.9,.2,1.8,.43,2.66,.21,.78,.49,1.54,.88,2.25,.14,.25,.3,.49,.5,.69,.08,.07,.18,.16,.28,.09,.17-.11,.29-.28,.41-.45,.42-.64,.72-1.37,.95-2.1,.32-1.02,.51-2.08,.57-3.15-1.35,0-2.69,0-4.03,0h0Zm5.89,0c-.05,.87-.17,1.73-.35,2.58-.17,.84-.41,1.68-.74,2.47,.66-.33,1.28-.77,1.8-1.31,.98-.99,1.62-2.33,1.83-3.74-.84,0-1.69,0-2.53,0h0Z"></path><path class="cls-2" d="M53.55,37.13h-2.2c-.35,0-.63-.29-.63-.63v-14.49c0-.35,.29-.63,.63-.63h2.2c.35,0,.63,.29,.63,.63v14.49c0,.35-.29,.63-.63,.63Z"></path><path class="cls-2" d="M57.72,58.27l.16,2.58c-1.44,.15-3.89,.23-7.36,.23-1.06,0-1.9-.29-2.53-.86-.63-.57-.95-1.36-.97-2.33v-9.62c.02-.98,.34-1.76,.97-2.33,.63-.57,1.47-.86,2.53-.86,3.46,0,5.92,.08,7.36,.23l-.16,2.6h-6.1c-.38,0-.66,.09-.83,.28s-.25,.48-.25,.9v2.41h6.33v2.53h-6.33v3.06c0,.43,.08,.74,.25,.92,.17,.18,.45,.28,.83,.28h6.1Z"></path><path class="cls-2" d="M34.85,34.47l.16,2.58c-1.44,.15-3.89,.23-7.36,.23-1.06,0-1.9-.29-2.53-.86-.63-.57-.95-1.36-.97-2.33v-9.62c.02-.98,.34-1.76,.97-2.33,.63-.57,1.47-.86,2.53-.86,3.46,0,5.92,.08,7.36,.23l-.16,2.6h-6.1c-.38,0-.66,.09-.83,.28-.17,.18-.25,.48-.25,.9v2.41h6.33v2.53h-6.33v3.06c0,.43,.08,.74,.25,.92s.45,.28,.83,.28h6.1Z"></path></g><g><path class="cls-2" d="M111.92,40.44l.2,3.23c-1.81,.19-4.88,.29-9.22,.29-1.32,0-2.38-.36-3.17-1.08-.79-.72-1.19-1.69-1.21-2.93v-12.04c.02-1.23,.42-2.2,1.21-2.93s1.84-1.08,3.17-1.08c4.34,0,7.41,.1,9.22,.29l-.2,3.25h-7.63c-.48,0-.82,.12-1.04,.35-.21,.23-.32,.6-.32,1.13v3.02h7.92v3.17h-7.92v3.83c0,.54,.11,.92,.32,1.15,.21,.23,.56,.35,1.04,.35h7.63Z"></path><path class="cls-2" d="M131.77,23.99v11.95c0,3.03-.58,5.18-1.74,6.42-1.16,1.25-3.17,1.87-6.01,1.87-3,0-5.1-.62-6.32-1.87-1.22-1.25-1.83-3.39-1.83-6.42v-11.95h4.38v11.95c0,1.83,.26,3.07,.76,3.74s1.44,1.01,2.81,1.01,2.27-.34,2.78-1.01c.51-.67,.76-1.92,.76-3.74v-11.95h4.41Z"></path><path class="cls-2" d="M152.02,43.87h-4.64l-1.5-6.08c-.19-.63-.45-1.07-.76-1.31s-.77-.36-1.37-.36l-3.08-.03v7.78h-4.32V23.99c1.79-.17,4.31-.26,7.58-.26,2.67,0,4.56,.42,5.67,1.27,1.12,.84,1.67,2.38,1.67,4.61,0,1.46-.29,2.6-.88,3.43-.59,.82-1.56,1.32-2.93,1.5v.14c1.52,.35,2.46,1.35,2.82,3l1.73,6.19h0Zm-11.35-11.15h3.17c1.15,0,1.94-.19,2.36-.59,.42-.39,.63-1.14,.63-2.23s-.2-1.83-.62-2.22c-.41-.38-1.21-.58-2.38-.58l-3.17,.03v5.59h0Z"></path><path class="cls-2" d="M156.73,25.82c1.24-1.47,3.45-2.2,6.64-2.2s5.41,.74,6.65,2.2c1.25,1.47,1.87,4.17,1.87,8.11s-.62,6.64-1.87,8.11-3.47,2.2-6.65,2.2-5.4-.74-6.64-2.2c-1.24-1.47-1.86-4.17-1.86-8.11s.62-6.64,1.86-8.11Zm9.71,2.75c-.55-.94-1.57-1.41-3.07-1.41s-2.52,.47-3.07,1.41-.82,2.73-.82,5.36,.28,4.42,.82,5.36c.55,.94,1.57,1.41,3.07,1.41s2.52-.47,3.07-1.41c.55-.94,.82-2.73,.82-5.36s-.28-4.41-.82-5.36Z"></path><path class="cls-2" d="M179.54,43.87h-2.77c-.45,0-.8-.36-.8-.8V24.79c0-.45,.36-.8,.8-.8h2.77c.45,0,.8,.36,.8,.8v18.27c0,.45-.36,.8-.8,.8Z"></path><path class="cls-2" d="M201.86,23.99v18.29c0,1.06-.52,1.59-1.56,1.59h-2.74c-.44,0-.79-.1-1.04-.3s-.49-.53-.72-.99l-5.21-10.6c-.65-1.4-1.06-2.43-1.21-3.08h-.32c.13,.96,.2,2.02,.2,3.17v11.81h-4.18V25.58c0-1.05,.53-1.59,1.59-1.59h2.68c.44,0,.79,.1,1.04,.3s.49,.53,.72,.99l5.04,10.28c.48,.96,.96,2.03,1.44,3.2h.29c-.11-1.5-.17-2.61-.17-3.34v-11.44h4.15Z"></path><path class="cls-2" d="M223.37,23.99v18.29c0,1.06-.52,1.59-1.56,1.59h-2.74c-.45,0-.79-.1-1.04-.3s-.49-.53-.72-.99l-5.21-10.6c-.65-1.4-1.06-2.43-1.21-3.08h-.32c.13,.96,.2,2.02,.2,3.17v11.81h-4.18V25.58c0-1.05,.53-1.59,1.59-1.59h2.68c.44,0,.79,.1,1.04,.3s.49,.53,.72,.99l5.04,10.28c.48,.96,.96,2.03,1.44,3.2h.29c-.12-1.5-.17-2.61-.17-3.34v-11.44h4.15Z"></path><path class="cls-2" d="M229.32,25.82c1.24-1.47,3.45-2.2,6.64-2.2s5.41,.74,6.65,2.2c1.25,1.47,1.87,4.17,1.87,8.11s-.62,6.64-1.87,8.11-3.47,2.2-6.65,2.2-5.4-.74-6.64-2.2c-1.24-1.47-1.86-4.17-1.86-8.11s.62-6.64,1.86-8.11Zm9.71,2.75c-.55-.94-1.57-1.41-3.07-1.41s-2.52,.47-3.07,1.41-.82,2.73-.82,5.36,.28,4.42,.82,5.36c.55,.94,1.57,1.41,3.07,1.41s2.52-.47,3.07-1.41c.55-.94,.82-2.73,.82-5.36s-.28-4.41-.82-5.36Z"></path><path class="cls-2" d="M264.42,23.99l-5.39,18.67c-.1,.36-.28,.66-.56,.88s-.61,.33-.99,.33h-4.01c-.38,0-.72-.11-.99-.33s-.47-.51-.56-.88l-5.42-18.67h4.52l3.6,14.34c.19,.77,.35,1.51,.49,2.22h.72c.06-.36,.22-1.1,.49-2.22l3.57-14.34h4.52Z"></path><path class="cls-2" d="M277.1,38.65h-6.83l-1.44,5.21h-4.5l5.73-18.72c.08-.35,.26-.62,.55-.83,.29-.21,.61-.32,.98-.32h4.15c.82,0,1.34,.38,1.52,1.15l5.73,18.72h-4.47l-1.44-5.21h0Zm-.95-3.4l-1.67-6.08c-.23-.96-.36-1.59-.4-1.87h-.78c-.04,.19-.11,.5-.2,.92-.1,.42-.17,.74-.23,.95l-1.67,6.08h4.96Z"></path></g><g><path class="cls-2" d="M99.5,58.38h-1.03v-7.09h1.03v7.09Z"></path><path class="cls-2" d="M107.31,51.29v6.7c0,.27-.13,.4-.38,.4h-.98c-.2,0-.35-.11-.44-.32l-2.21-4.83c-.25-.54-.39-.86-.42-.99h-.14c.04,.28,.05,.6,.05,.99v5.15h-1.03v-6.7c0-.27,.13-.4,.39-.4h.95c.2,0,.35,.11,.45,.32l2.15,4.71c.03,.06,.08,.16,.14,.3,.07,.14,.13,.28,.19,.4s.11,.25,.16,.35h.15c-.04-.41-.05-.78-.05-1.1v-4.99h1.02Z"></path><path class="cls-2" d="M114.45,52.21h-2.25v6.18h-1.04v-6.18h-2.23v-.92h5.52v.92h0Z"></path><path class="cls-2" d="M120.43,57.53l.05,.79c-.62,.06-1.64,.08-3.04,.08-.44,0-.79-.11-1.04-.34-.26-.23-.38-.54-.39-.93v-4.59c0-.39,.14-.7,.39-.93,.26-.23,.6-.34,1.04-.34,1.41,0,2.42,.03,3.04,.08l-.05,.8h-2.82c-.2,0-.35,.05-.43,.15-.09,.1-.13,.27-.13,.51v1.42h2.99v.83h-2.99v1.81c0,.24,.04,.41,.13,.51,.09,.1,.23,.15,.43,.15h2.82Z"></path><path class="cls-2" d="M127.44,58.38h-1.1l-.61-2.21c-.15-.47-.45-.71-.9-.71h-1.46v2.92h-1.02v-7.09c.58-.06,1.41-.09,2.48-.09,.86,0,1.46,.15,1.82,.44,.35,.3,.53,.83,.53,1.62,0,.57-.1,1-.3,1.28-.2,.29-.54,.46-1,.53v.05c.46,.14,.76,.48,.9,1.03l.67,2.24h0Zm-4.06-3.81h1.44c.51,0,.85-.1,1.04-.27s.28-.51,.28-.99-.09-.81-.28-.98c-.19-.17-.54-.26-1.04-.26-.7,0-1.18,0-1.44,.01v2.49h0Z"></path><path class="cls-2" d="M134.8,51.29v6.7c0,.27-.13,.4-.38,.4h-.98c-.2,0-.35-.11-.45-.32l-2.21-4.83c-.25-.54-.39-.86-.42-.99h-.14c.04,.28,.05,.6,.05,.99v5.15h-1.03v-6.7c0-.27,.13-.4,.39-.4h.95c.2,0,.35,.11,.45,.32l2.15,4.71c.03,.06,.08,.16,.14,.3,.07,.14,.13,.28,.19,.4s.11,.25,.16,.35h.15c-.04-.41-.05-.78-.05-1.1v-4.99h1.03Z"></path><path class="cls-2" d="M140.81,56.25h-2.83l-.66,2.14h-1.05l2.22-6.82c.06-.18,.18-.28,.38-.28h1.05c.2,0,.33,.09,.37,.28l2.23,6.82h-1.06l-.66-2.14h.01Zm-.27-.9l-.83-2.7c-.02-.06-.05-.16-.09-.29s-.07-.23-.09-.29h-.28l-.16,.58-.83,2.7h2.28Z"></path><path class="cls-2" d="M148.31,52.21h-2.25v6.18h-1.04v-6.18h-2.23v-.92h5.52v.92h0Z"></path><path class="cls-2" d="M150.95,58.38h-1.03v-7.09h1.03v7.09Z"></path><path class="cls-2" d="M155.77,51.15c1.05,0,1.8,.27,2.21,.8,.42,.54,.63,1.49,.63,2.88s-.21,2.34-.63,2.88c-.42,.54-1.16,.8-2.21,.8s-1.78-.27-2.2-.8-.63-1.49-.63-2.88,.21-2.34,.63-2.88,1.15-.8,2.2-.8Zm1.38,1.51c-.26-.4-.72-.6-1.38-.6s-1.13,.2-1.37,.6-.37,1.12-.37,2.17,.12,1.77,.37,2.17,.71,.6,1.37,.6,1.13-.2,1.38-.6,.38-1.12,.38-2.17-.13-1.77-.38-2.17Z"></path><path class="cls-2" d="M166.14,51.29v6.7c0,.27-.13,.4-.38,.4h-.98c-.2,0-.35-.11-.45-.32l-2.21-4.83c-.25-.54-.39-.86-.42-.99h-.14c.04,.28,.05,.6,.05,.99v5.15h-1.03v-6.7c0-.27,.13-.4,.39-.4h.95c.2,0,.35,.11,.45,.32l2.15,4.71c.03,.06,.08,.16,.14,.3,.07,.14,.13,.28,.19,.4,.06,.13,.11,.25,.16,.35h.15c-.04-.41-.05-.78-.05-1.1v-4.99h1.03Z"></path><path class="cls-2" d="M172.15,56.25h-2.83l-.66,2.14h-1.05l2.22-6.82c.06-.18,.18-.28,.38-.28h1.05c.2,0,.33,.09,.37,.28l2.23,6.82h-1.06l-.66-2.14h.01Zm-.27-.9l-.83-2.7c-.02-.06-.05-.16-.09-.29s-.07-.23-.09-.29h-.28l-.16,.58-.83,2.7h2.28Z"></path><path class="cls-2" d="M176.35,51.29v5.58c0,.24,.05,.41,.14,.51,.1,.1,.27,.15,.5,.15h2.52l.05,.79c-.66,.06-1.58,.09-2.74,.09-1.01,0-1.51-.47-1.51-1.4v-5.72h1.03Z"></path><path class="cls-2" d="M186.28,51.15c1.05,0,1.79,.27,2.21,.8s.63,1.49,.63,2.88-.21,2.34-.63,2.88-1.16,.8-2.21,.8-1.79-.27-2.2-.8c-.42-.54-.63-1.49-.63-2.88s.21-2.34,.63-2.88c.42-.54,1.15-.8,2.2-.8Zm1.38,1.51c-.26-.4-.71-.6-1.38-.6s-1.13,.2-1.37,.6c-.25,.4-.37,1.12-.37,2.17s.12,1.77,.37,2.17c.25,.4,.71,.6,1.37,.6s1.13-.2,1.38-.6,.38-1.12,.38-2.17-.13-1.77-.38-2.17Z"></path><path class="cls-2" d="M196.66,51.29v6.7c0,.27-.13,.4-.38,.4h-.98c-.2,0-.35-.11-.44-.32l-2.21-4.83c-.25-.54-.39-.86-.42-.99h-.14c.04,.28,.05,.6,.05,.99v5.15h-1.03v-6.7c0-.27,.13-.4,.39-.4h.95c.2,0,.35,.11,.46,.32l2.15,4.71c.03,.06,.08,.16,.14,.3,.07,.14,.13,.28,.19,.4,.06,.13,.11,.25,.16,.35h.15c-.04-.41-.05-.78-.05-1.1v-4.99h1.01Z"></path><path class="cls-2" d="M199.91,51.29v5.58c0,.24,.05,.41,.14,.51,.1,.1,.27,.15,.51,.15h2.52l.05,.79c-.66,.06-1.58,.09-2.74,.09-1.01,0-1.51-.47-1.51-1.4v-5.72h1.03Z"></path><path class="cls-2" d="M205.75,58.38h-1.03v-7.09h1.03v7.09Z"></path><path class="cls-2" d="M213.54,51.29v6.7c0,.27-.13,.4-.38,.4h-.98c-.2,0-.35-.11-.45-.32l-2.21-4.83c-.25-.54-.39-.86-.42-.99h-.14c.04,.28,.05,.6,.05,.99v5.15h-1.03v-6.7c0-.27,.13-.4,.39-.4h.95c.2,0,.35,.11,.45,.32l2.15,4.71c.03,.06,.08,.16,.14,.3,.07,.14,.13,.28,.19,.4,.06,.13,.11,.25,.16,.35h.15c-.04-.41-.05-.78-.05-1.1v-4.99h1.03Z"></path><path class="cls-2" d="M220.15,57.53l.05,.79c-.62,.06-1.64,.08-3.04,.08-.44,0-.79-.11-1.04-.34s-.38-.54-.39-.93v-4.59c0-.39,.14-.7,.39-.93s.6-.34,1.04-.34c1.41,0,2.42,.03,3.04,.08l-.05,.8h-2.82c-.2,0-.35,.05-.43,.15-.09,.1-.13,.27-.13,.51v1.42h2.99v.83h-2.99v1.81c0,.24,.04,.41,.13,.51,.09,.1,.23,.15,.43,.15h2.82Z"></path><g><path class="cls-2" d="M230.86,57.4l.05,.79c-.62,.06-1.64,.08-3.04,.08-.44,0-.79-.11-1.04-.34-.26-.23-.38-.54-.39-.93v-4.59c0-.39,.14-.7,.39-.93,.26-.23,.6-.34,1.04-.34,1.41,0,2.42,.03,3.04,.08l-.05,.8h-2.82c-.2,0-.35,.05-.43,.15-.09,.1-.13,.27-.13,.51v1.42h2.99v.83h-2.99v1.81c0,.24,.04,.41,.13,.51,.09,.1,.23,.15,.43,.15h2.82Z"></path><path class="cls-2" d="M232.78,58.25v-7.09c.9-.06,1.75-.09,2.56-.09,1.04,0,1.77,.27,2.18,.79,.41,.53,.62,1.48,.62,2.85s-.21,2.32-.62,2.85-1.15,.79-2.18,.79c-.81,0-1.66-.03-2.56-.09h0Zm1.03-6.29v5.45c.44,.02,.95,.03,1.53,.03,.64,0,1.09-.2,1.34-.6s.37-1.12,.37-2.15-.12-1.75-.37-2.15-.7-.6-1.34-.6h-1.53Z"></path><path class="cls-2" d="M245.32,51.15v4.36c0,1.04-.19,1.78-.58,2.21s-1.05,.65-1.99,.65-1.65-.21-2.05-.65c-.4-.43-.6-1.18-.6-2.21v-4.36h1.03v4.36c0,.73,.12,1.23,.35,1.52,.24,.29,.64,.43,1.23,.43s.99-.14,1.23-.43,.35-.79,.35-1.52v-4.36h1.04Z"></path><path class="cls-2" d="M252.06,57.35l.1,.78c-.57,.16-1.27,.25-2.11,.25-1.03,0-1.76-.28-2.18-.82-.42-.55-.63-1.5-.63-2.85s.21-2.3,.63-2.85,1.15-.82,2.18-.82c.74,0,1.4,.07,1.96,.2l-.1,.79c-.55-.06-1.17-.08-1.86-.08-.65,0-1.1,.2-1.35,.6-.25,.4-.37,1.12-.37,2.16s.12,1.76,.37,2.16c.25,.4,.7,.6,1.35,.6,.87,0,1.54-.04,2.01-.11Z"></path><path class="cls-2" d="M257.67,56.11h-2.83l-.66,2.14h-1.05l2.22-6.82c.06-.18,.18-.28,.38-.28h1.05c.2,0,.33,.09,.37,.28l2.23,6.82h-1.06l-.66-2.14h.01Zm-.27-.9l-.83-2.7c-.02-.06-.05-.16-.09-.29s-.07-.23-.09-.29h-.28l-.16,.58-.83,2.7h2.28Z"></path><path class="cls-2" d="M265.17,52.07h-2.25v6.18h-1.04v-6.18h-2.23v-.92h5.52v.92h0Z"></path><path class="cls-2" d="M267.81,58.25h-1.03v-7.09h1.03v7.09Z"></path><path class="cls-2" d="M272.62,51.02c1.05,0,1.8,.27,2.21,.8,.42,.54,.63,1.49,.63,2.88s-.21,2.34-.63,2.88c-.42,.54-1.16,.8-2.21,.8s-1.78-.27-2.2-.8-.63-1.49-.63-2.88,.21-2.34,.63-2.88c.42-.54,1.15-.8,2.2-.8Zm1.38,1.51c-.26-.4-.72-.6-1.38-.6s-1.13,.2-1.37,.6-.37,1.12-.37,2.17,.12,1.77,.37,2.17,.71,.6,1.37,.6,1.13-.2,1.38-.6,.38-1.12,.38-2.17-.13-1.77-.38-2.17Z"></path><path class="cls-2" d="M283,51.15v6.7c0,.27-.13,.4-.38,.4h-.98c-.2,0-.35-.11-.45-.32l-2.21-4.83c-.25-.54-.39-.86-.42-.99h-.14c.04,.28,.05,.6,.05,.99v5.15h-1.03v-6.7c0-.27,.13-.4,.39-.4h.95c.2,0,.35,.11,.45,.32l2.15,4.71c.03,.06,.08,.16,.14,.3,.07,.14,.13,.28,.19,.4,.06,.13,.11,.25,.16,.35h.15c-.04-.41-.05-.78-.05-1.1v-4.99h1.03Z"></path></g></g></g></g></svg>